<svg xmlns="http://www.w3.org/2000/svg" viewBox="0 0 420 440" role="img" aria-label="Rota fechada por 51 regiões da USP com partida perto da entrada do IME">
<rect width="420" height="440" fill="#102c38"/>
<polygon points="127.98,230.66 127.39,234.56 129.26,234.82 128.96,236.75 136.50,237.99 135.82,242.83 133.95,242.47 134.37,239.49 130.58,238.92 129.62,244.72 133.44,245.29 133.70,243.70 135.64,244.03 135.39,245.49 141.12,246.37 142.84,234.91 141.16,234.62 142.25,227.00 140.37,226.73 140.11,228.55 138.23,228.31 138.53,226.51 136.51,226.18 135.52,231.86" fill="#b97732" stroke="#ffdcaa" stroke-width="1.5"/>
<polygon points="146.93,247.56 154.06,248.57 154.72,244.28 153.46,244.12 155.71,229.92 149.78,228.87" fill="#b97732" stroke="#ffdcaa" stroke-width="1.5"/>
<polygon points="149.92,224.44 150.19,221.82 145.16,221.10 145.17,220.77 143.93,220.59 143.89,220.89 139.54,220.17 139.60,219.78 138.46,219.63 138.41,220.02 133.15,219.18 132.82,221.14 133.59,221.20 133.47,221.87" fill="#b97732" stroke="#ffdcaa" stroke-width="1.5"/>
<polygon points="127.33,268.38 126.51,273.76 125.21,273.59 124.41,278.87 122.97,278.58 123.23,275.80 123.57,275.75 124.44,269.64 125.52,268.98 125.59,267.97 123.27,267.52 120.84,267.59 118.67,268.08 116.42,269.16 120.82,277.40 121.38,277.11 121.66,277.44 121.70,278.98 125.62,279.82 124.93,284.38 149.30,288.12 149.90,283.92 151.27,284.07 152.24,277.72 150.80,277.50 151.64,272.10" fill="hsl(118 58% 42% / .68)" stroke="#b6e8dc" stroke-width="1.5"/>
<polygon points="175.87,243.89 169.27,256.33 190.01,267.39 196.63,254.86" fill="hsl(120 58% 42% / .68)" stroke="#b6e8dc" stroke-width="1.5"/>
<polygon points="204.63,255.50 210.65,275.00 211.69,274.72 217.74,263.26 217.41,262.19" fill="hsl(122 58% 42% / .68)" stroke="#b6e8dc" stroke-width="1.5"/>
<polygon points="184.04,279.37 182.32,282.56 209.79,297.06 211.38,293.90" fill="hsl(119 58% 42% / .68)" stroke="#b6e8dc" stroke-width="1.5"/>
<polygon points="241.78,309.20 244.45,304.27 241.32,302.66 240.50,304.29 238.62,303.28 239.43,301.65 237.93,300.78 239.70,297.33 246.24,300.87 248.02,297.36 241.48,293.99 242.31,292.25 249.01,295.84 250.91,292.30 244.18,288.76 244.97,287.12 251.74,290.71 253.62,287.35 246.79,283.75 247.65,281.97 254.42,285.62 256.22,282.34 249.43,278.67 248.51,280.34 239.99,275.87 239.17,277.50 245.93,281.00 245.03,282.74 238.37,279.25 237.49,280.87 244.15,284.40 243.32,286.17 236.51,282.62 235.63,284.35 242.42,287.79 241.57,289.59 234.71,285.91 233.76,287.78 240.64,291.38 238.99,294.70 228.64,289.30 225.95,294.36 236.14,299.85 234.44,303.09 239.58,305.87 238.69,307.61" fill="hsl(125 58% 42% / .68)" stroke="#b6e8dc" stroke-width="1.5"/>
<polygon points="272.84,312.64 276.22,305.98 277.92,306.82 284.23,294.54 280.92,292.83 275.62,303.22 274.04,302.43 277.72,295.32 275.63,294.26 272.08,301.30 270.78,300.65 276.03,290.47 272.21,288.57 266.33,300.08 264.66,299.22 265.36,297.89 263.61,297.04 260.13,303.81 258.47,302.98 261.14,297.77 259.15,296.78 255.63,303.65 261.02,306.35 262.66,303.04 264.17,303.81 262.45,307.24 266.02,309.04 266.85,307.40 268.56,308.25 267.65,310.03" fill="hsl(126 58% 42% / .68)" stroke="#b6e8dc" stroke-width="1.5"/>
<polygon points="282.24,306.48 277.47,315.46 286.31,320.12 289.95,313.30 291.33,314.10 288.50,319.37 292.46,321.50 295.11,316.53 296.39,317.22 293.74,322.10 297.64,324.16 304.26,311.81 300.03,309.55 297.28,314.79 296.26,314.16 298.98,309.06 294.98,306.91 292.25,311.80 289.11,310.17 289.77,308.98 291.66,310.00 293.90,305.94 289.62,303.62 286.80,308.89" fill="hsl(134 58% 42% / .68)" stroke="#b6e8dc" stroke-width="1.5"/>
<polygon points="319.10,316.78 317.22,320.26 316.82,320.04 314.00,325.38 314.50,325.63 312.61,329.27 333.83,340.31 335.71,336.85 336.23,337.14 339.01,331.90 338.48,331.64 340.39,327.95" fill="hsl(136 58% 42% / .68)" stroke="#b6e8dc" stroke-width="1.5"/>
<polygon points="354.39,311.09 363.32,315.84 367.36,308.47 358.43,303.65 358.75,302.58 358.61,301.35 358.08,300.33 357.18,299.61 356.08,299.24 354.85,299.34 353.80,299.92 353.14,300.85 333.77,290.41 329.80,297.72 349.21,308.27 347.22,311.97 352.37,314.80" fill="hsl(137 58% 42% / .68)" stroke="#b6e8dc" stroke-width="1.5"/>
<polygon points="246.78,215.54 246.94,215.64 246.16,217.07 246.02,217.03 241.94,224.76 245.09,226.47 249.20,218.73 249.07,218.67 249.86,217.21 250.03,217.24 260.62,197.35 260.48,197.18 257.39,195.62" fill="hsl(148 58% 42% / .68)" stroke="#b6e8dc" stroke-width="1.5"/>
<polygon points="257.51,208.90 262.50,211.46 263.48,209.67 262.77,209.35 263.34,208.28 264.05,208.65 266.53,204.01 261.50,201.43" fill="hsl(147 58% 42% / .68)" stroke="#b6e8dc" stroke-width="1.5"/>
<polygon points="269.58,204.91 277.76,209.31 269.65,224.45 267.21,223.26 270.48,217.17 266.48,215.11 261.29,224.82 265.24,226.87 266.79,224.04 269.23,225.28 264.66,233.97 256.37,229.53 255.52,231.27 266.11,236.88 270.50,228.62 271.10,228.91 277.20,217.36 276.59,217.05 281.03,208.85 270.40,203.21" fill="hsl(146 58% 42% / .68)" stroke="#b6e8dc" stroke-width="1.5"/>
<polygon points="227.47,202.17 235.64,194.62 237.27,196.38 239.54,194.33 237.84,192.53 241.47,189.17 239.22,186.79 235.65,190.15 227.37,181.40 225.26,183.38 226.67,184.96 219.69,198.41 222.42,199.82 225.92,193.29 227.05,193.79 227.80,192.48 226.63,191.89 229.02,187.41 230.18,188.66 229.21,189.53 230.24,190.65 231.18,189.73 233.44,192.21 231.65,193.93 230.71,192.93 229.67,193.93 230.57,194.92 225.26,199.87" fill="hsl(151 58% 42% / .68)" stroke="#b6e8dc" stroke-width="1.5"/>
<polygon points="210.09,179.23 208.45,178.44 205.08,184.94 204.57,184.75 203.70,186.52 201.70,187.16 202.46,189.60 203.01,192.27 205.65,191.34 207.07,188.56 206.86,188.50 207.67,186.82 208.24,186.66 208.52,186.22 208.55,185.78 208.40,185.49 211.90,178.80 210.67,178.17" fill="hsl(154 58% 42% / .68)" stroke="#b6e8dc" stroke-width="1.5"/>
<polygon points="199.76,183.41 196.69,181.77 190.51,193.33 193.65,194.97" fill="hsl(155 58% 42% / .68)" stroke="#b6e8dc" stroke-width="1.5"/>
<polygon points="186.81,207.75 188.49,204.56 187.54,204.07 188.76,201.71 186.63,200.62 187.23,199.58 189.27,200.65 190.08,199.08 188.05,198.02 188.14,197.79 179.09,193.03 184.70,182.57 192.34,186.56 195.56,180.46 199.92,175.61 200.75,176.08 202.37,172.94 191.38,167.19 189.75,170.34 199.36,175.38 194.88,180.20 192.02,185.80 191.48,185.56 191.95,184.74 189.81,183.65 192.70,178.27 190.81,177.23 190.61,177.61 189.40,176.93 189.21,177.30 171.06,167.71 168.42,172.74 176.06,176.77 175.78,177.26 171.22,174.84 165.71,185.33 170.13,187.79 170.05,188.10 160.95,183.34 158.24,188.36 167.95,193.56 167.40,194.74 167.10,194.51 166.76,195.19 166.50,195.08 166.42,195.24 165.89,194.96 165.03,196.48 165.75,196.85 165.62,197.13 164.33,196.43 164.70,195.73 164.84,195.77 165.41,194.65 164.32,194.08 163.31,195.95 160.48,194.43 160.26,194.90 159.15,194.37 157.48,197.52 166.27,202.15 167.99,198.95 165.84,197.82 166.13,197.19 167.78,198.06 168.73,196.35 167.92,195.83 168.87,194.04 177.81,198.79 176.26,201.72 177.27,202.26 178.85,199.31 181.05,200.53 180.10,202.36 180.31,202.75 179.87,203.55 183.78,205.65 183.57,206.04" fill="hsl(157 58% 42% / .68)" stroke="#b6e8dc" stroke-width="1.5"/>
<polygon points="109.11,176.24 110.38,173.72 107.72,172.27 108.19,171.24 110.96,172.69 111.46,171.72 111.69,171.85 110.56,174.06 112.08,174.89 113.94,169.79 114.19,169.89 114.59,169.10 113.52,168.52 112.15,171.08 111.92,170.97 112.32,170.19 109.52,168.78 110.41,167.12 113.12,168.52 113.89,167.22 114.35,167.46 114.98,166.22 111.81,164.50 112.10,163.94 113.22,164.51 113.92,163.40 110.34,161.47 109.66,162.57 111.47,163.61 111.18,164.19 105.07,161.03 104.77,161.68 104.09,161.36 103.15,163.22 109.83,166.77 108.84,168.44 102.21,164.90 100.82,167.34 107.67,170.95 107.10,171.96 100.45,168.39 99.09,171.05" fill="hsl(171 58% 42% / .68)" stroke="#b6e8dc" stroke-width="1.5"/>
<polygon points="115.31,167.94 113.24,171.80 120.10,175.40 119.51,176.60 118.78,176.37 117.35,176.43 116.14,176.81 114.93,177.49 114.03,178.51 113.35,179.68 113.10,180.88 113.10,182.37 113.49,183.68 114.32,184.82 115.29,185.73 116.60,186.33 117.92,186.57 119.30,186.46 120.75,185.94 121.92,185.03 122.79,183.83 123.26,182.50 123.35,181.06 123.02,179.64 122.38,178.49 121.34,177.41 121.81,176.33 128.22,179.68 130.18,175.84 129.84,175.41 124.62,172.56 124.49,172.83 123.86,172.45 124.32,171.58 126.90,172.90 127.74,171.23 134.74,174.92 134.89,174.60 143.89,179.34 144.99,177.33 126.49,167.38 127.04,166.24 134.75,170.26 137.31,165.34 120.19,156.33 117.65,161.20 125.28,165.27 124.56,166.48 111.38,159.52 110.37,161.43 115.80,164.38 115.79,164.84 120.92,167.56 120.00,169.28 122.36,170.53 121.92,171.41" fill="hsl(169 58% 42% / .68)" stroke="#b6e8dc" stroke-width="1.5"/>
<polygon points="130.37,175.60 124.49,186.91 127.43,188.37 129.72,183.85 136.38,187.32 135.69,188.81 130.36,186.14 128.82,189.10 137.03,193.42 138.97,189.62 137.60,188.89 139.01,186.08 141.57,187.49 142.62,185.45 139.93,184.06 141.08,181.94 134.47,178.46 134.77,177.90" fill="hsl(172 58% 42% / .68)" stroke="#b6e8dc" stroke-width="1.5"/>
<polygon points="138.48,146.56 151.33,122.75 145.13,119.40 146.42,117.02 152.29,120.14 156.80,111.81 157.34,110.76 162.05,113.24 163.80,110.04 155.39,105.51 153.66,108.80 153.10,109.77 142.07,103.88 137.41,112.52 143.27,115.54 142.15,117.56 136.61,114.64 123.75,138.71" fill="hsl(168 58% 42% / .68)" stroke="#b6e8dc" stroke-width="1.5"/>
<polygon points="146.95,80.26 154.86,84.43 164.93,65.59 157.06,61.37" fill="hsl(165 58% 42% / .68)" stroke="#b6e8dc" stroke-width="1.5"/>
<polygon points="155.53,96.74 166.74,102.69 176.83,83.86 165.72,77.90" fill="hsl(164 58% 42% / .68)" stroke="#b6e8dc" stroke-width="1.5"/>
<polygon points="175.92,102.29 181.63,105.27 182.54,103.50 184.77,104.63 183.46,107.07 188.12,109.57 189.33,107.27 196.28,110.90 195.35,112.78 207.15,119.04 221.08,92.94 209.20,86.66 208.76,87.48 194.91,80.17 195.34,79.38 189.64,76.40" fill="hsl(162 58% 42% / .68)" stroke="#b6e8dc" stroke-width="1.5"/>
<polygon points="219.33,105.54 219.13,105.67 217.42,109.14 217.80,109.43 213.00,118.54 212.53,118.26 211.79,119.70 225.19,126.67 225.11,126.81 227.20,127.92 233.17,116.67 246.53,123.72 247.05,122.73 247.71,123.12 252.55,114.00 265.51,120.88 260.42,130.59 260.84,130.84 260.69,131.20 269.11,135.69 274.19,126.08 273.96,125.94 275.36,123.65 237.31,103.16 224.04,96.35" fill="hsl(161 58% 42% / .68)" stroke="#b6e8dc" stroke-width="1.5"/>
<polygon points="203.75,167.31 206.98,168.79 212.59,156.73 209.36,155.30" fill="hsl(158 58% 42% / .68)" stroke="#b6e8dc" stroke-width="1.5"/>
<polygon points="242.46,183.63 244.34,180.11 241.78,178.68 242.35,177.71 244.91,179.12 245.48,178.04 243.00,176.44 243.66,175.48 246.07,177.11 248.39,173.78 246.93,172.82 248.27,170.89 247.19,170.17 250.99,164.71 244.54,160.24 240.72,165.67 239.76,165.04 238.45,166.94 234.93,164.55 232.62,167.85 238.00,171.54 237.09,172.89 233.81,170.86 233.11,171.90 236.31,173.91 235.57,175.36 230.41,172.56 228.52,176.04" fill="hsl(150 58% 42% / .68)" stroke="#b6e8dc" stroke-width="1.5"/>
<polygon points="97.22,244.24 97.43,241.90 107.13,243.01 107.43,240.14 104.66,239.84 104.90,237.46 107.66,237.71 107.96,234.86 96.55,233.62 96.49,234.64 96.01,234.64 96.13,232.09 97.16,232.12 97.20,230.89 106.65,231.59 106.99,228.27 97.43,227.30 97.36,228.51 96.72,228.52 96.77,227.37 95.39,227.31 95.21,230.60 96.54,230.60 96.53,231.35 95.44,231.26 95.15,235.43 96.36,235.53 95.88,240.10 94.39,239.95 94.56,238.30 94.27,238.22 94.37,237.34 93.09,237.21 93.31,235.01 92.70,234.90 92.82,234.00 82.45,232.84 82.54,231.61 80.92,231.44 80.94,231.96 78.77,231.85 78.47,235.23 82.03,235.40 81.90,236.76 71.70,235.79 71.65,236.79 65.82,236.35 65.84,236.14 64.46,236.07 64.35,238.77 92.00,241.60 92.04,240.85 92.70,240.87 92.68,241.33 94.07,241.48 94.15,240.59 95.79,240.73 95.44,244.11" fill="hsl(106 58% 42% / .68)" stroke="#b6e8dc" stroke-width="1.5"/>
<polygon points="93.01,263.55 93.25,261.34 88.56,260.78 88.82,258.63 93.55,259.16 93.75,256.90 53.92,252.62 53.68,255.09 58.69,255.64 58.53,257.47 53.44,257.00 53.22,259.41" fill="hsl(109 58% 42% / .68)" stroke="#b6e8dc" stroke-width="1.5"/>
<polygon points="100.80,264.49 100.96,263.50 101.26,263.51 101.39,262.41 99.69,262.25 100.12,258.35 97.18,257.99 97.03,259.27 97.59,259.31 97.58,259.69 96.90,259.61 96.84,259.98 95.54,259.88 95.09,263.74 96.68,263.91 96.76,263.12 98.14,263.26 98.07,264.19" fill="hsl(108 58% 42% / .68)" stroke="#b6e8dc" stroke-width="1.5"/>
<polygon points="55.80,264.04 55.28,269.58 64.52,270.51 63.36,282.71 64.37,282.77 64.20,284.73 64.99,284.77 64.47,290.31 69.67,290.81 70.17,284.94 65.05,284.47 65.39,281.36 64.58,281.27 65.65,270.67 69.44,271.05 69.23,273.53 73.05,273.87 72.99,274.95 73.64,274.98 73.49,276.52 75.73,276.73 75.60,278.33 79.65,278.72 79.95,274.76 74.45,274.25 74.56,273.19 72.35,273.03 72.46,271.25 80.28,271.93 80.75,266.57" fill="hsl(111 58% 42% / .68)" stroke="#b6e8dc" stroke-width="1.5"/>
<polygon points="70.79,285.98 70.52,288.42 73.91,288.77 73.64,291.62 77.93,292.03 78.39,287.21 89.59,288.36 90.14,283.03 86.39,282.65 86.45,281.95 85.03,281.79 84.97,282.43 78.59,281.77 78.52,282.57 78.09,282.57 77.78,285.48 73.83,285.08 73.82,285.40 72.72,285.31 72.63,286.18" fill="hsl(115 58% 42% / .68)" stroke="#b6e8dc" stroke-width="1.5"/>
<polygon points="78.74,292.21 79.35,292.26 79.27,292.85 68.41,291.70 68.32,292.70 64.71,292.42 64.55,293.84 81.85,295.70 81.52,299.34 81.00,299.32 81.05,298.53 80.80,298.47 80.95,297.01 79.60,296.87 79.32,299.79 81.47,299.97 81.38,301.43 84.37,301.77 84.34,301.96 84.81,302.00 84.69,303.52 87.69,303.80 87.69,303.66 88.49,303.70 88.47,303.92 91.49,304.25 91.81,300.88 92.04,300.88 92.25,298.72 93.00,298.76 92.46,304.32 97.46,304.87 98.49,294.84 93.46,294.31 93.37,294.84 92.67,294.76 92.71,294.27 89.50,293.96 89.22,296.74 88.89,296.67 88.75,298.09 88.27,298.01 88.71,293.78 87.40,293.63 87.44,293.05 90.99,293.41 91.17,291.63 78.93,290.34" fill="hsl(116 58% 42% / .68)" stroke="#b6e8dc" stroke-width="1.5"/>
<polygon points="50.39,272.04 49.81,272.02 49.83,271.49 48.30,271.36 47.74,277.11 41.69,276.51 41.47,278.83 42.73,278.96 42.24,283.10 44.15,283.31 44.10,284.29 46.11,284.52 46.47,280.48 51.64,281.07 51.07,286.34 52.95,286.50 53.48,281.14 62.15,282.07 62.36,280.00 49.18,278.62 49.68,273.82 53.08,273.92 53.27,271.74 50.45,271.19" fill="hsl(112 58% 42% / .68)" stroke="#b6e8dc" stroke-width="1.5"/>
<polygon points="40.00,290.33 42.73,290.59 42.86,289.95 43.35,289.99 42.92,293.89 46.74,294.25 47.62,286.32 43.32,285.85 43.55,283.52 40.79,283.20" fill="hsl(113 58% 42% / .68)" stroke="#b6e8dc" stroke-width="1.5"/>
<polygon points="249.69,324.88 268.74,334.92 272.95,327.04 253.85,316.99" fill="hsl(127 58% 42% / .68)" stroke="#b6e8dc" stroke-width="1.5"/>
<polygon points="248.56,337.78 246.12,336.65 248.60,331.77 248.07,331.47 249.04,329.81 247.32,328.86 242.72,337.41 245.15,338.57 245.60,337.64 247.93,338.93 245.34,343.82 255.61,349.26 261.87,337.61 251.57,332.17" fill="hsl(129 58% 42% / .68)" stroke="#b6e8dc" stroke-width="1.5"/>
<polygon points="271.27,332.41 278.04,335.97 280.48,331.30 273.84,327.84" fill="hsl(132 58% 42% / .68)" stroke="#b6e8dc" stroke-width="1.5"/>
<polygon points="262.78,343.26 273.29,348.84 272.70,349.87 262.26,344.35 260.52,347.52 271.01,353.08 270.30,354.33 259.72,348.73 257.93,352.06 268.56,357.65 267.91,358.81 257.30,353.21 255.60,356.37 266.25,361.99 265.48,363.35 254.85,357.70 253.20,360.81 263.80,366.41 263.06,367.87 252.57,362.30 250.21,366.66 260.74,372.22 260.16,373.48 249.47,367.86 247.92,370.86 250.87,372.45 250.98,372.26 258.58,376.27 259.51,374.60 261.01,375.28 261.69,374.41 262.23,372.95 273.03,378.63 275.36,374.35 264.57,368.59 265.28,367.25 276.17,373.07 277.88,369.89 266.96,364.11 267.59,362.95 278.44,368.77 280.18,365.38 269.35,359.68 269.79,358.70 280.52,364.46 282.41,360.92 271.66,355.24 272.29,354.19 282.96,359.89 284.71,356.50 274.05,350.82 274.66,349.66 285.20,355.27 287.63,350.72 277.16,345.10 276.84,343.97 275.61,344.36 265.14,338.93" fill="hsl(130 58% 42% / .68)" stroke="#b6e8dc" stroke-width="1.5"/>
<polygon points="277.45,339.51 315.49,359.76 319.72,351.86 281.53,331.63" fill="hsl(133 58% 42% / .68)" stroke="#b6e8dc" stroke-width="1.5"/>
<polygon points="354.25,293.08 356.88,288.09 347.55,283.26 348.04,282.30 359.53,288.41 360.31,286.77 355.87,284.39 356.68,282.91 357.30,283.23 357.93,281.94 357.36,281.66 359.06,278.42 350.88,274.17 351.60,272.73 337.76,265.37 336.91,267.04 341.37,269.40 334.35,282.52" fill="hsl(139 58% 42% / .68)" stroke="#b6e8dc" stroke-width="1.5"/>
<polygon points="232.93,228.47 225.66,241.90 225.99,245.60 227.22,247.95 229.60,249.90 253.37,263.29 256.43,264.45 259.54,263.82 263.17,259.79 269.19,247.68" fill="hsl(123 58% 42% / .68)" stroke="#b6e8dc" stroke-width="1.5"/>
<polygon points="272.20,167.77 271.00,169.96 274.82,172.15 274.04,173.50 270.32,171.41 269.03,173.63 279.74,179.49 280.91,177.24 277.05,175.11 277.83,173.70 281.75,175.72 282.88,173.44 278.38,171.09 278.61,170.61 283.17,172.92 283.47,172.47 285.12,173.08 284.79,173.66 285.96,174.18 286.41,173.34 287.87,173.91 287.48,174.52 295.68,178.83 297.39,175.61 289.20,171.27 288.16,173.17 286.90,172.59 295.01,157.31 301.80,160.82 301.32,161.69 298.76,160.40 297.30,163.07 302.96,165.91 299.21,173.20 301.92,174.59 307.05,164.63 301.93,162.12 303.00,160.39 308.20,163.23 309.42,160.98 305.62,158.88 306.24,157.52 304.76,156.73 304.96,156.26 305.88,156.70 308.16,152.38 310.78,153.80 308.39,158.14 311.03,159.56 311.74,158.14 311.32,157.82 314.07,152.72 308.89,149.97 308.35,151.11 307.05,150.40 307.60,149.29 302.36,146.56 298.98,153.18 304.57,156.10 304.33,156.56 303.35,156.03 302.59,157.39 298.69,155.30 297.50,157.53 302.29,160.06 301.87,160.59 295.13,157.00 300.99,145.90 299.75,145.31 299.00,146.66 298.31,146.27 298.78,145.27 286.37,138.83 284.47,142.49 296.86,148.97 298.10,146.57 298.85,146.97 294.21,155.86 292.38,154.89 292.99,153.51 288.23,150.95 287.53,152.35 286.27,151.60 287.01,150.33 282.13,147.71 280.38,151.17 284.86,153.51 283.69,155.60 285.70,156.73 286.75,154.62 291.27,157.02 292.12,155.23 294.02,156.22 285.24,172.78 277.30,169.06 276.66,170.16" fill="hsl(143 58% 42% / .68)" stroke="#b6e8dc" stroke-width="1.5"/>
<polygon points="308.56,209.27 310.55,205.43 309.66,205.02 311.80,200.90 308.11,198.95 308.64,197.98 307.67,197.50 307.85,197.27 306.51,196.58 305.89,197.79 304.45,197.01 305.45,195.15 312.62,198.88 314.20,195.85 306.88,191.93 308.21,189.45 306.26,188.38 307.15,187.03 314.59,190.94 313.21,193.65 315.54,195.03 318.37,189.46 308.35,184.21 302.70,194.50 300.76,193.42 302.54,190.05 296.28,186.82 297.68,184.05 298.24,184.24 298.62,183.52 298.15,183.29 298.52,182.47 302.32,184.43 302.62,183.81 303.16,184.08 303.80,182.79 303.25,182.57 303.67,181.83 297.17,178.45 292.21,187.76 290.53,187.95 286.06,185.65 287.76,182.39 292.54,184.96 294.00,182.14 286.47,178.15 281.82,187.05 289.18,190.76 290.54,188.37 292.35,188.14 297.56,190.91 296.51,192.73 300.12,194.73 300.57,193.88 304.43,196.02 304.16,196.98 300.55,203.91 303.43,205.40 302.94,206.38 304.04,206.85 304.46,206.01 308.18,207.92 307.67,208.80" fill="hsl(141 58% 42% / .68)" stroke="#b6e8dc" stroke-width="1.5"/>
<polygon points="257.27,191.79 265.73,196.34 267.61,192.83 269.31,193.72 267.48,197.18 276.03,201.68 277.94,197.85 279.53,198.85 277.55,202.62 286.17,207.19 290.76,198.56 282.11,194.14 280.10,197.97 278.48,197.10 280.52,193.21 271.99,188.74 269.71,192.94 268.06,192.03 270.34,187.76 261.73,183.22" fill="hsl(144 58% 42% / .68)" stroke="#b6e8dc" stroke-width="1.5"/>
<polygon points="189.28,207.62 182.74,219.54 214.35,236.02 220.82,224.17 206.06,216.38 207.81,213.61 218.94,219.54 220.63,216.64 209.49,210.65 210.72,208.78 221.66,214.58 223.44,211.42 225.37,207.96 213.85,201.87 203.54,196.35 202.81,197.94 199.28,196.21 199.45,195.92 199.80,195.82 200.16,194.69 199.15,194.31 198.44,195.72 196.86,194.95 191.61,204.67 195.43,206.54 200.51,197.56 202.49,198.49 197.21,208.67 206.52,213.59 205.33,215.86" fill="hsl(153 58% 42% / .68)" stroke="#b6e8dc" stroke-width="1.5"/>
<polygon points="175.43,147.08 174.54,148.80 179.91,151.54 180.79,149.93 181.80,150.38 180.79,152.36 185.76,155.01 189.59,147.88 191.67,148.90 188.16,155.82 191.26,157.35 194.96,150.23 189.73,147.54 192.46,142.47 193.26,142.88 191.32,146.72 195.81,148.98 197.91,144.94 192.55,142.25 192.89,141.62 198.11,144.10 203.87,132.98 199.67,130.88 194.08,141.79 193.06,141.32 198.61,130.90 185.55,124.03 175.79,142.24 181.02,145.01 184.64,138.21 187.56,139.76 181.88,150.31 180.44,149.74" fill="hsl(160 58% 42% / .68)" stroke="#b6e8dc" stroke-width="1.5"/>
<polygon points="370.25,265.59 371.46,263.35 370.36,262.81 372.38,258.94 370.12,257.75 370.69,256.58 367.96,255.15 367.36,256.29 363.94,254.49 361.57,259.05 359.43,257.93 358.72,259.25 358.33,258.94 365.60,245.11 368.95,246.90 366.76,251.02 373.76,254.71 375.51,251.06 376.33,251.46 380.00,244.50 372.38,240.40 369.06,246.61 365.70,244.95 365.86,244.67 366.40,244.98 367.23,243.34 353.37,235.95 352.64,237.69 354.78,238.74 354.08,240.09 350.55,238.20 345.08,248.67 355.43,254.04 358.94,247.28 360.04,247.87 359.79,248.40 361.15,249.10 362.66,246.11 361.41,245.46 361.19,245.84 360.07,245.23 361.61,242.43 363.99,243.68 363.36,244.83 364.57,245.47 365.21,244.33 365.57,244.54 357.85,259.30 358.62,259.55" fill="hsl(140 58% 42% / .68)" stroke="#b6e8dc" stroke-width="1.5"/>
<polygon points="119.19,91.82 126.76,95.61 123.83,101.30 116.29,97.50" fill="hsl(167 58% 42% / .68)" stroke="#b6e8dc" stroke-width="1.5"/>
<polyline points="143.34,235.76 107.13,243.01 97.18,257.99 47.62,286.32 78.93,290.34 184.04,279.37 190.01,267.39 207.07,263.41 239.97,255.74 255.63,303.65 261.87,337.61 265.14,338.93 281.53,331.63 297.64,324.16 319.10,316.78 329.80,297.72 345.08,248.67 279.74,179.49 270.40,203.21 261.58,201.47 242.46,183.63 204.17,196.69 203.01,192.27 199.76,183.41 203.75,167.31 203.87,132.98 211.79,119.70 154.86,84.43 123.83,101.30 123.75,138.71 114.98,166.22 149.66,229.65 143.34,235.76" fill="none" stroke="#ffad66" stroke-width="4" stroke-linejoin="round" stroke-linecap="round"/>
<circle cx="143.34" cy="235.76" r="7" fill="#fff" stroke="#102c38" stroke-width="2"/>
<text x="156.34" y="240.76" fill="white" font-family="system-ui,sans-serif" font-weight="700" font-size="15">IME · s = t</text>
</svg>
