<svg xmlns="http://www.w3.org/2000/svg" viewBox="0 0 420 600" role="img" aria-label="Rota calculada entre oito edifícios da USP">
<rect width="420" height="600" fill="#102c38"/>
<polygon points="161.98,527.38 163.80,514.94 144.58,511.75 145.26,506.80 140.49,506.08 140.79,504.08 142.01,496.11 161.31,499.25 163.81,484.64 168.88,485.40 168.16,490.10 168.39,490.13 172.71,490.79 173.02,490.83 173.74,486.05 178.55,486.77 175.68,506.34 180.05,507.00 179.64,509.39 179.21,511.92 178.43,517.43 175.56,536.44 171.34,535.82 170.90,535.76 167.53,535.24 166.30,535.05 165.82,534.98 160.93,534.24 161.60,529.85" fill="hsl(155 58% 42% / .68)" stroke="#b6e8dc" stroke-width="1.5"/>
<text x="164.81" y="509.45" fill="white" stroke="#102c38" stroke-width="3" paint-order="stroke" font-family="system-ui,sans-serif" font-weight="700" font-size="17" text-anchor="middle" dominant-baseline="central">6</text>
<polygon points="121.89,354.84 104.32,345.55 106.80,340.89 107.85,338.94 109.53,335.80 126.52,344.78 127.75,342.48 121.63,339.24 123.95,334.91 110.76,327.93 111.29,326.95 106.12,324.22 96.87,319.33 97.50,318.16 99.57,314.29 107.98,318.74 133.36,332.17 137.99,334.62 176.74,355.12 173.92,360.41 159.65,352.86 159.21,353.68 141.42,344.27 139.14,348.53 132.65,345.09 131.41,347.41 133.10,348.30 146.48,355.38 147.83,356.09 148.41,356.40 143.22,366.13 142.73,365.87 126.30,357.18 124.24,356.09" fill="hsl(165 58% 42% / .68)" stroke="#b6e8dc" stroke-width="1.5"/>
<text x="131.98" y="343.69" fill="white" stroke="#102c38" stroke-width="3" paint-order="stroke" font-family="system-ui,sans-serif" font-weight="700" font-size="17" text-anchor="middle" dominant-baseline="central">7</text>
<polygon points="93.75,357.15 68.16,343.77 70.67,338.98 71.68,337.13 88.70,346.14 90.10,343.54 72.78,334.34 76.12,328.06 93.19,337.12 95.63,332.88 78.46,323.77 80.97,319.03 82.69,319.94 83.50,318.26 99.03,326.25 99.85,324.75 95.18,322.10 96.87,319.33 106.12,324.22 104.48,327.30 101.42,325.61 100.61,327.02 108.81,331.45 107.17,334.58 105.97,333.96 104.14,337.40 97.14,333.68 94.81,337.99 101.90,341.75 100.87,343.68 101.48,344.00 105.00,337.39 107.85,338.94 106.80,340.89 106.16,340.59 104.32,345.55 101.25,353.64 97.42,351.46 100.48,345.88 99.89,345.54 98.56,348.03 91.48,344.28 90.12,346.88 97.10,350.61 96.26,352.34" fill="hsl(175 58% 42% / .68)" stroke="#b6e8dc" stroke-width="1.5"/>
<text x="89.74" y="337.50" fill="white" stroke="#102c38" stroke-width="3" paint-order="stroke" font-family="system-ui,sans-serif" font-weight="700" font-size="17" text-anchor="middle" dominant-baseline="central">8</text>
<polygon points="295.79,412.20 295.49,412.77 293.40,416.71 291.99,419.38 289.02,425.01 277.73,419.04 272.02,416.03 269.42,414.65 246.47,402.52 244.28,401.36 221.88,389.52 219.41,388.21 226.19,375.40 264.66,395.74 264.92,395.37 257.09,391.03 249.45,387.27 249.93,386.56 238.47,380.23 243.82,370.13 252.58,353.55 264.22,359.71 264.82,358.58 280.11,366.68 280.17,366.51 245.42,348.15 252.20,335.31 298.54,359.79 299.04,358.90 302.13,360.53 302.64,359.66 307.43,362.26 306.45,363.97 300.05,376.12 299.67,376.82 294.04,373.84 288.17,370.74 287.54,371.91 286.81,373.28 272.60,399.94" fill="hsl(145 58% 42% / .68)" stroke="#b6e8dc" stroke-width="1.5"/>
<text x="264.92" y="379.01" fill="white" stroke="#102c38" stroke-width="3" paint-order="stroke" font-family="system-ui,sans-serif" font-weight="700" font-size="17" text-anchor="middle" dominant-baseline="central">5</text>
<polygon points="208.10,206.44 207.21,208.07 204.18,213.71 189.11,205.69 185.82,211.81 201.71,220.27 200.40,222.70 181.20,258.35 168.87,281.24 131.18,261.16 164.30,199.67 178.32,207.14 178.89,206.08 181.09,202.00 166.17,194.07 171.45,184.27 177.93,172.22 206.34,187.34 215.69,192.32" fill="hsl(135 58% 42% / .68)" stroke="#b6e8dc" stroke-width="1.5"/>
<text x="173.01" y="227.85" fill="white" stroke="#102c38" stroke-width="3" paint-order="stroke" font-family="system-ui,sans-serif" font-weight="700" font-size="17" text-anchor="middle" dominant-baseline="central">4</text>
<polygon points="299.68,101.93 314.14,109.61 313.11,111.56 348.48,130.24 349.61,128.11 380.00,144.25 377.68,148.62 371.59,160.10 360.10,153.99 358.87,156.14 357.20,155.29 351.08,166.86 345.62,163.97 349.48,156.67 352.91,158.49 356.33,151.99 345.60,146.29 338.76,159.18 339.81,159.76 343.07,153.60 347.15,155.76 344.17,161.52 345.70,162.28 344.22,165.24 351.62,169.16 352.11,168.31 354.13,169.34 358.30,161.58 359.90,162.40 360.01,162.19 362.21,163.33 361.41,164.95 364.47,166.46 361.61,172.27 358.55,170.76 357.73,172.41 363.35,175.39 348.35,203.61 344.47,210.92 314.16,194.82 316.65,190.14 307.04,185.08 298.83,180.76 295.70,186.68 289.77,183.54 283.77,180.38 287.14,174.00 281.57,170.96 279.01,175.77 264.55,168.09" fill="hsl(125 58% 42% / .68)" stroke="#b6e8dc" stroke-width="1.5"/>
<text x="320.78" y="156.16" fill="white" stroke="#102c38" stroke-width="3" paint-order="stroke" font-family="system-ui,sans-serif" font-weight="700" font-size="17" text-anchor="middle" dominant-baseline="central">3</text>
<polygon points="238.35,105.74 266.90,120.97 241.18,169.17 212.64,153.94 222.94,134.63" fill="hsl(115 58% 42% / .68)" stroke="#b6e8dc" stroke-width="1.5"/>
<text x="239.77" y="137.45" fill="white" stroke="#102c38" stroke-width="3" paint-order="stroke" font-family="system-ui,sans-serif" font-weight="700" font-size="17" text-anchor="middle" dominant-baseline="central">2</text>
<polygon points="216.26,63.56 236.30,74.23 219.03,106.70 210.68,122.38 190.63,111.71" fill="hsl(105 58% 42% / .68)" stroke="#b6e8dc" stroke-width="1.5"/>
<text x="213.47" y="92.97" fill="white" stroke="#102c38" stroke-width="3" paint-order="stroke" font-family="system-ui,sans-serif" font-weight="700" font-size="17" text-anchor="middle" dominant-baseline="central">1</text>
<polyline points="160.45,95.71 190.63,111.71 264.55,168.09 211.55,200.02 219.41,388.21 163.81,484.64 115.08,351.25 40.00,370.22" fill="none" stroke="#ffad66" stroke-width="4" stroke-linejoin="round" stroke-linecap="round"/>
<circle cx="160.45" cy="95.71" r="7" fill="#fff" stroke="#102c38" stroke-width="2"/>
<text x="173.45" y="100.71" fill="white" font-family="system-ui,sans-serif" font-weight="700" font-size="17">S</text>
<circle cx="40.00" cy="370.22" r="7" fill="#fff" stroke="#102c38" stroke-width="2"/>
<text x="53.00" y="375.22" fill="white" font-family="system-ui,sans-serif" font-weight="700" font-size="17">T</text>
</svg>
